<!DOCTYPE svg PUBLIC "-//W3C//DTD SVG 20010904//EN" "http://www.w3.org/TR/2001/REC-SVG-20010904/DTD/svg10.dtd">
<svg version="1.0" xmlns="http://www.w3.org/2000/svg" width="300px" height="300px" viewBox="0 0 3000 3000" preserveAspectRatio="xMidYMid meet">
<g id="layer101" fill="#000807" stroke="none">
 <path d="M0 1500 l0 -1500 1500 0 1500 0 0 1500 0 1500 -1500 0 -1500 0 0 -1500z"/>
 </g>
<g id="layer102" fill="#0baa94" stroke="none">
 <path d="M0 1500 l0 -1500 1500 0 1500 0 0 1500 0 1500 -1500 0 -1500 0 0 -1500z m1780 1390 c261 -53 470 -157 672 -334 228 -201 381 -468 449 -786 32 -150 32 -400 0 -550 -57 -266 -159 -471 -335 -672 -201 -229 -469 -382 -786 -449 -151 -32 -401 -32 -550 0 -318 68 -585 221 -786 449 -176 201 -278 406 -335 672 -32 150 -32 400 0 550 93 439 347 777 741 988 131 71 316 128 490 152 104 14 322 4 440 -20z"/>
 <path d="M1340 2774 c-328 -58 -554 -175 -765 -395 -165 -172 -265 -356 -326 -599 -21 -83 -24 -119 -24 -285 0 -164 3 -202 23 -280 63 -251 161 -431 327 -604 184 -192 383 -307 645 -372 83 -21 119 -24 285 -24 166 0 202 3 285 24 262 65 461 180 645 372 165 172 265 356 326 599 21 83 24 119 24 285 0 166 -3 202 -24 285 -61 243 -161 427 -326 599 -184 192 -380 305 -645 372 -66 16 -123 22 -255 24 -93 2 -181 1 -195 -1z m350 -280 c392 -74 693 -356 802 -752 31 -112 31 -382 0 -494 -77 -280 -255 -511 -495 -643 -89 -49 -207 -91 -313 -111 -117 -21 -316 -15 -426 14 -368 98 -637 367 -740 740 -31 112 -31 382 0 494 92 334 318 586 632 705 158 61 372 79 540 47z"/>
 <path d="M1410 2369 c-36 -4 -75 -11 -87 -14 l-23 -5 0 -408 0 -407 53 -19 c33 -12 67 -34 93 -61 55 -57 67 -122 62 -341 -3 -142 -5 -165 -22 -183 -25 -27 -70 -27 -96 1 -19 20 -20 34 -20 215 l0 194 -26 24 c-15 14 -31 25 -35 25 -5 0 -9 -99 -9 -220 0 -207 -1 -221 -20 -240 -26 -26 -72 -26 -96 1 -17 19 -19 41 -22 240 -3 179 -6 219 -17 219 -8 0 -21 -10 -29 -22 -13 -18 -16 -57 -16 -214 0 -178 -1 -193 -21 -218 -28 -35 -70 -35 -98 0 -20 25 -21 40 -21 211 0 107 5 204 12 231 15 61 81 127 143 144 l45 12 0 388 0 388 -52 -26 c-247 -125 -403 -326 -465 -598 -24 -104 -21 -298 6 -401 28 -108 107 -265 175 -347 80 -97 176 -172 291 -229 143 -71 230 -91 390 -91 160 0 247 20 390 91 273 135 452 392 486 699 22 202 -34 415 -156 587 -51 73 -180 196 -255 247 l-55 36 -3 -366 c-2 -289 0 -368 10 -371 30 -9 114 -109 131 -156 27 -74 33 -206 13 -285 -32 -129 -125 -220 -223 -220 -84 0 -153 54 -199 155 -25 54 -28 72 -28 175 -1 65 4 133 11 156 19 60 66 126 112 154 l40 25 1 396 0 397 -32 6 c-159 34 -227 39 -338 25z"/>
 <path d="M1797 1390 c-59 -70 -70 -204 -24 -303 43 -93 93 -96 140 -7 23 45 27 64 27 135 0 161 -76 255 -143 175z"/>
 </g>

</svg>