<!DOCTYPE svg PUBLIC "-//W3C//DTD SVG 20010904//EN" "http://www.w3.org/TR/2001/REC-SVG-20010904/DTD/svg10.dtd">
<svg version="1.0" xmlns="http://www.w3.org/2000/svg" width="300px" height="300px" viewBox="0 0 3000 3000" preserveAspectRatio="xMidYMid meet">
<g id="layer101" fill="#000000" stroke="none">
 <path d="M0 1500 l0 -1500 1500 0 1500 0 0 1500 0 1500 -1500 0 -1500 0 0 -1500z"/>
 </g>
<g id="layer102" fill="#fed700" stroke="none">
 <path d="M0 1500 l0 -1500 1500 0 1500 0 0 1500 0 1500 -1500 0 -1500 0 0 -1500z m1638 1279 c111 -12 217 -37 316 -74 257 -97 497 -301 649 -553 193 -319 228 -744 92 -1106 -97 -257 -301 -497 -553 -649 -384 -232 -910 -232 -1294 0 -252 152 -456 392 -553 649 -136 362 -101 787 92 1106 127 210 330 401 541 507 204 103 465 147 710 120z"/>
 <path d="M1405 2664 c-240 -25 -462 -113 -633 -250 -179 -143 -305 -326 -381 -551 -42 -126 -54 -205 -54 -358 0 -153 12 -231 54 -358 100 -301 304 -539 584 -680 91 -45 237 -94 328 -109 94 -15 293 -15 384 0 264 44 541 206 713 419 112 138 212 358 241 530 15 87 15 309 0 396 -23 134 -95 316 -176 442 -51 80 -162 201 -247 269 -136 109 -360 210 -520 236 -77 12 -238 19 -293 14z m317 -268 c159 -45 301 -128 419 -245 121 -122 210 -278 250 -441 19 -74 19 -336 0 -410 -40 -163 -129 -319 -250 -441 -122 -121 -278 -210 -441 -250 -74 -19 -336 -19 -410 0 -163 40 -319 129 -441 250 -91 92 -156 188 -202 301 -53 131 -62 179 -62 345 0 166 9 214 62 345 117 285 387 506 685 560 77 13 322 4 390 -14z"/>
 <path d="M1358 2288 l-48 -10 0 -368 0 -368 55 -22 c30 -12 66 -36 80 -52 29 -34 53 -109 49 -158 -1 -19 -2 -94 -3 -166 -1 -91 -5 -136 -14 -148 -19 -26 -67 -24 -89 4 -16 20 -18 43 -18 196 0 161 -2 176 -20 194 -11 11 -24 20 -30 20 -6 0 -10 -73 -10 -198 0 -180 -2 -200 -18 -215 -24 -22 -65 -21 -85 1 -15 16 -17 46 -17 215 0 207 -4 223 -43 179 -15 -16 -17 -45 -17 -193 0 -200 -6 -219 -65 -219 -24 0 -38 6 -45 19 -6 12 -10 99 -10 213 0 178 2 196 21 227 28 46 55 68 112 88 l47 18 0 347 0 347 -46 -19 c-80 -35 -194 -122 -256 -195 -66 -78 -138 -215 -165 -315 -28 -103 -25 -322 6 -420 84 -270 281 -467 551 -552 99 -30 320 -33 415 -5 283 86 480 280 566 557 33 107 33 300 1 415 -60 208 -201 389 -389 499 -10 6 -13 -61 -13 -322 l0 -329 35 -24 c74 -50 116 -145 116 -263 0 -194 -97 -328 -228 -313 -53 6 -85 27 -130 86 -47 61 -66 136 -61 240 6 111 33 176 99 235 l49 44 -2 353 -3 353 -50 13 c-66 18 -267 25 -327 11z"/>
 <path d="M1761 1416 c-44 -47 -63 -158 -40 -241 14 -50 54 -105 78 -105 47 0 91 90 91 185 0 70 -18 126 -52 162 -27 29 -49 29 -77 -1z"/>
 </g>

</svg>