<!DOCTYPE svg PUBLIC "-//W3C//DTD SVG 20010904//EN" "http://www.w3.org/TR/2001/REC-SVG-20010904/DTD/svg10.dtd">
<svg version="1.0" xmlns="http://www.w3.org/2000/svg" width="300px" height="300px" viewBox="0 0 3000 3000" preserveAspectRatio="xMidYMid meet">
<g id="layer101" fill="#020100" stroke="none">
 <path d="M0 1500 l0 -1500 1500 0 1500 0 0 1500 0 1500 -1500 0 -1500 0 0 -1500z"/>
 </g>
<g id="layer102" fill="#e94f1b" stroke="none">
 <path d="M0 1500 l0 -1500 1500 0 1500 0 0 1500 0 1500 -1500 0 -1500 0 0 -1500z m1680 1395 c318 -41 583 -171 814 -400 429 -425 537 -1080 268 -1620 -259 -520 -814 -831 -1387 -777 -70 7 -163 21 -208 32 -680 171 -1136 811 -1068 1498 33 342 169 631 407 867 319 316 733 457 1174 400z"/>
 <path d="M1315 2764 c-58 -9 -191 -45 -260 -71 -361 -135 -636 -418 -762 -787 -53 -156 -66 -253 -60 -451 5 -183 18 -253 79 -410 54 -142 106 -231 206 -356 180 -223 472 -394 760 -444 109 -19 335 -19 444 0 439 76 824 398 973 813 63 176 70 222 69 447 0 223 -6 258 -72 445 -115 327 -406 616 -747 743 -158 59 -218 69 -415 72 -102 2 -198 1 -215 -1z m395 -281 c217 -44 431 -175 571 -351 207 -259 274 -580 188 -902 -11 -41 -42 -120 -69 -176 -184 -373 -592 -599 -999 -554 -243 27 -445 123 -612 292 -305 307 -381 758 -194 1145 203 418 654 640 1115 546z"/>
 <path d="M1348 2358 l-48 -10 0 -403 0 -402 73 -36 c59 -29 77 -44 97 -79 24 -41 25 -51 28 -253 3 -202 2 -211 -18 -233 -26 -28 -71 -29 -96 -1 -17 19 -19 40 -21 218 l-3 196 -27 24 -28 24 -5 -221 c-4 -191 -7 -224 -22 -242 -23 -26 -70 -26 -94 1 -17 19 -19 40 -21 213 -1 105 -2 203 -3 219 0 32 -13 34 -40 7 -19 -19 -20 -33 -20 -214 0 -180 -1 -195 -21 -220 -26 -33 -68 -34 -97 -3 -21 22 -22 32 -22 208 0 227 10 269 75 327 24 21 62 44 84 51 32 9 41 17 41 34 1 12 2 183 3 380 l2 358 -25 -6 c-32 -8 -162 -87 -217 -132 -98 -81 -201 -235 -248 -372 -72 -212 -54 -484 44 -679 41 -82 139 -210 197 -257 130 -108 202 -148 339 -191 83 -26 102 -29 245 -29 142 0 162 3 245 29 182 57 342 168 447 310 74 99 108 165 144 281 26 82 28 104 29 240 0 113 -4 166 -18 215 -23 86 -87 218 -142 296 -55 76 -187 200 -254 237 l-51 28 0 -359 0 -359 38 -24 c43 -28 97 -104 114 -162 21 -70 15 -232 -10 -297 -60 -153 -173 -215 -289 -159 -47 23 -115 113 -133 177 -46 163 1 359 105 433 l45 32 0 388 0 388 -38 11 c-118 31 -283 39 -384 18z"/>
 <path d="M1791 1401 c-36 -39 -51 -92 -51 -183 0 -60 5 -84 26 -127 55 -109 128 -79 164 68 21 90 -6 211 -58 251 -34 27 -49 25 -81 -9z"/>
 </g>

</svg>